<?xml version="1.0" encoding="utf-8"?>
<!-- Generator: Adobe Illustrator 21.1.0, SVG Export Plug-In . SVG Version: 6.00 Build 0)  -->
<svg version="1.1" id="Ebene_1" xmlns="http://www.w3.org/2000/svg" xmlns:xlink="http://www.w3.org/1999/xlink" x="0px" y="0px"
	 viewBox="0 0 357.7 146.6" style="enable-background:new 0 0 357.7 146.6;" xml:space="preserve">
<style type="text/css">
	.st0{clip-path:url(#SVGID_2_);}
	.st1{fill:#F8991C;}
</style>
<g>
	<defs>
		<rect id="SVGID_1_" width="357.7" height="146.6"/>
	</defs>
	<clipPath id="SVGID_2_">
		<use xlink:href="#SVGID_1_"  style="overflow:visible;"/>
	</clipPath>
	<g class="st0">
		<path d="M48.2,83.8V52.3h10.3v31.1c0,7.6,6.2,9.6,9.9,9.6c7.8,0,10.4-4.6,10.4-7.3V52.3h10.4v49h-6l-4-5.5
			c-3.5,4.3-8.8,6.7-14.3,6.6C55,102.3,48.1,95.7,48.2,83.8"/>
		<path d="M165.8,34.8v66.4h5.9l3.8-5.5c3.5,4.3,8.7,6.7,14.2,6.6c9.1,0,16.9-5.7,16.9-18V69.1c0-12.3-7.7-18-17.3-18
			c-6.6,0-11.1,3-13.4,5.9V34.8H165.8z M186.8,92.9c-6.4,0-11-3.1-10.9-9.7l0,0V69.8c0-5.3,4.2-9.3,11-9.3c5.2-0.1,9.5,3.9,9.6,9.1
			c0,0.1,0,0.1,0,0.2v13.8C196.5,89.4,191.6,92.9,186.8,92.9"/>
		<path d="M127,34.9v22.2c-2.3-2.9-6.8-5.9-13.4-5.9c-9.6,0-17.3,5.7-17.3,18v15.2c0,12.3,7.8,18,16.9,18c5.5,0.1,10.8-2.3,14.2-6.6
			l3.8,5.5h5.9V34.9H127z M106.4,83.6V69.9c0-5.2,4.2-9.3,9.4-9.3c0.1,0,0.1,0,0.2,0c6.8,0,11,3.9,11,9.3v13.4l0,0
			c0.2,6.6-4.5,9.7-10.9,9.7C111.3,93,106.5,89.5,106.4,83.6"/>
		<rect x="213.6" y="34.9" width="10.4" height="66.4"/>
		<rect x="146.4" y="52.3" width="10.4" height="49"/>
		<path d="M151.6,46.4c3.3,0,5.9-2.6,5.9-5.9s-2.6-5.9-5.9-5.9s-5.9,2.6-5.9,5.9l0,0C145.7,43.8,148.3,46.4,151.6,46.4"/>
		<path d="M252.4,93c-7.1,0-10.5-3.7-10.5-8.8v-4h30.7v-11c0-11.3-7.9-18-20.1-18c-12.7,0-20.9,7.1-20.9,18.2v15
			c0,11.3,8.2,18,20.9,18c9.5,0,16.4-3.8,19.2-10.4l-7.5-4.6C261.5,91.1,257.8,93,252.4,93 M241.9,69.2c0-5.1,3.5-8.6,10.2-8.6
			s10.2,3.5,10.2,8.6v3.1h-20.3V69.2z"/>
		<path d="M21.5,51.2c-10,0-16.6,4-19.1,10.1l8.1,5c3.4-5.4,6.6-5.8,11-5.8c6.3,0,9.2,3,9.2,7.8v3.8H22C15.7,72.2,0,74.4,0,88
			c0,9.6,7.2,14.4,16.1,14.4c5.7,0.1,11.2-2.3,15-6.6l4,5.5h6V67.7C41.1,58.1,34.7,51.2,21.5,51.2 M30.7,85.6c0,1.1-0.4,2.2-1.1,3
			C28,90.8,24,93,19.3,93c-4.9,0-8.5-2-8.5-6.1c0-5.9,9.5-7.1,15.4-7.4h4.5L30.7,85.6z"/>
		<path d="M3.1,120h2.1v9.1c-0.1,1,0.2,2,0.7,2.9c0.6,0.7,1.5,1,2.4,0.9c0.6,0,1.2-0.1,1.7-0.4c0.5-0.2,1-0.6,1.4-1
			c0.2-0.3,0.5-0.6,0.6-0.9c0.2-0.3,0.3-0.7,0.4-1c0.1-0.4,0.2-0.8,0.2-1.2c0-0.4,0-0.9,0-1.5V120h2v14.3h-1.2l-0.4-1.2l-0.3-1.1
			c-0.5,0.8-1.2,1.5-2.1,2c-0.8,0.5-1.8,0.7-2.7,0.7c-1.4,0.1-2.7-0.4-3.6-1.3c-0.9-1.1-1.3-2.5-1.2-3.9L3.1,120z"/>
		<path d="M20.7,120.1h1.2l0.8,2.3c0.5-0.8,1.3-1.5,2.2-2c0.8-0.4,1.8-0.7,2.7-0.7c1.4-0.1,2.7,0.4,3.7,1.3c0.9,1.1,1.3,2.5,1.2,3.9
			v9.5h-2.1v-9.1c0.1-1-0.2-2-0.8-2.8c-0.6-0.7-1.5-1-2.4-0.9c-0.7,0-1.4,0.1-2.1,0.5c-0.6,0.3-1,0.7-1.4,1.2
			c-0.4,0.6-0.6,1.2-0.8,1.8c-0.2,0.7-0.2,1.5-0.2,2.3v7h-2L20.7,120.1z"/>
		<path d="M49.8,130.3c-0.2,1.3-0.9,2.5-1.9,3.3c-1.2,0.8-2.6,1.3-4,1.2c-1,0-1.9-0.2-2.8-0.6c-0.8-0.3-1.5-0.9-2.1-1.5
			c-0.6-0.7-1-1.5-1.3-2.4c-0.6-2-0.6-4.1,0-6.1c0.3-0.9,0.7-1.7,1.3-2.4c0.5-0.7,1.2-1.2,2-1.6c0.8-0.4,1.8-0.6,2.7-0.6
			c0.9,0,1.9,0.2,2.7,0.6c0.8,0.3,1.5,0.9,2,1.5c0.5,0.7,0.9,1.4,1.2,2.2c0.3,0.9,0.4,1.8,0.4,2.7c0,0.2,0,0.3,0,0.5s0,0.4,0,0.6
			H39.5c0,0.7,0.1,1.4,0.3,2c0.2,0.6,0.5,1.2,0.8,1.7c0.4,0.5,0.8,0.9,1.4,1.2c0.6,0.3,1.3,0.4,1.9,0.4c0.9,0.1,1.9-0.2,2.7-0.8
			c0.6-0.5,1.1-1.2,1.2-2L49.8,130.3z M48.1,126.1c0-0.6-0.1-1.3-0.3-1.9c-0.2-0.5-0.4-1.1-0.8-1.5c-0.3-0.4-0.8-0.8-1.3-1
			c-0.6-0.3-1.2-0.4-1.8-0.4c-1.2-0.1-2.4,0.4-3.2,1.3c-0.8,1-1.2,2.2-1.2,3.4L48.1,126.1z"/>
		<path d="M65,130.1c0.1,0.9,0.5,1.7,1.3,2.2c0.9,0.5,1.8,0.8,2.8,0.7c0.9,0.1,1.9-0.2,2.7-0.7c0.6-0.4,1-1.1,0.9-1.8
			c0-0.6-0.3-1.3-0.8-1.7c-0.7-0.5-1.5-0.8-2.4-0.8c-0.8-0.1-1.6-0.2-2.3-0.4c-0.7-0.1-1.4-0.4-2-0.7c-0.5-0.3-1-0.7-1.4-1.2
			c-0.4-0.6-0.5-1.2-0.5-1.9c0-0.6,0.1-1.2,0.5-1.8c0.3-0.5,0.7-1,1.2-1.3c0.5-0.4,1.1-0.6,1.7-0.8c0.7-0.2,1.4-0.3,2.1-0.3
			c0.8,0,1.6,0.1,2.3,0.3c0.6,0.2,1.2,0.5,1.7,0.9c0.5,0.4,0.8,0.8,1.1,1.3c0.3,0.5,0.4,1.1,0.5,1.7h-1.9c-0.1-0.7-0.5-1.4-1-1.9
			c-0.8-0.5-1.7-0.8-2.6-0.7c-0.9-0.1-1.9,0.2-2.7,0.7c-0.5,0.4-0.8,1-0.8,1.7c0,0.3,0.1,0.7,0.2,1c0.1,0.3,0.4,0.5,0.7,0.6
			c0.4,0.2,0.9,0.3,1.4,0.4c0.6,0.1,1.3,0.3,2.2,0.4c1.3,0.1,2.6,0.6,3.7,1.4c0.8,0.7,1.3,1.8,1.2,2.9c0,0.6-0.1,1.2-0.4,1.8
			c-0.3,0.5-0.7,1-1.2,1.3c-0.5,0.4-1.2,0.7-1.8,0.8c-0.8,0.2-1.6,0.3-2.3,0.3c-0.8,0-1.6-0.1-2.3-0.3c-0.7-0.2-1.3-0.5-1.9-0.9
			c-0.5-0.4-1-0.9-1.3-1.4c-0.3-0.6-0.5-1.3-0.6-2L65,130.1z"/>
		<path d="M85.6,134.7c-1,0-1.9-0.2-2.8-0.6c-0.8-0.4-1.5-0.9-2-1.6c-0.6-0.7-1-1.5-1.2-2.4c-0.3-1-0.4-2-0.4-3c0-1,0.1-2,0.4-3
			c0.3-0.9,0.7-1.7,1.3-2.4c0.6-0.7,1.3-1.2,2.1-1.6c0.9-0.4,1.8-0.6,2.8-0.6c1,0,1.9,0.2,2.8,0.6c0.8,0.4,1.5,0.9,2.1,1.6
			c0.6,0.7,1,1.5,1.3,2.4c0.6,2,0.6,4,0,6c-0.3,0.9-0.7,1.7-1.3,2.4c-0.6,0.7-1.3,1.2-2.1,1.6C87.6,134.6,86.6,134.8,85.6,134.7
			 M85.6,133c0.7,0,1.5-0.1,2.1-0.5c0.6-0.3,1-0.8,1.4-1.3c0.4-0.6,0.6-1.2,0.7-1.9c0.3-1.4,0.3-2.9,0-4.3c-0.1-0.6-0.4-1.3-0.7-1.8
			c-0.3-0.5-0.8-1-1.4-1.3c-0.7-0.3-1.4-0.5-2.1-0.5c-1.4-0.1-2.7,0.6-3.5,1.8c-0.4,0.6-0.6,1.2-0.8,1.8c-0.1,0.7-0.2,1.4-0.2,2.1
			c0,0.7,0.1,1.4,0.2,2.1c0.1,0.7,0.4,1.3,0.8,1.9C82.9,132.4,84.2,133.1,85.6,133"/>
		<path d="M108.9,129.6c-0.2,1.4-0.8,2.7-1.8,3.7c-1.1,1-2.6,1.5-4.1,1.4c-1,0-1.9-0.2-2.8-0.6c-0.8-0.4-1.5-0.9-2-1.6
			c-0.6-0.7-1-1.5-1.2-2.4c-0.3-1-0.4-2-0.4-3c0-1,0.1-2,0.4-3c0.3-0.9,0.7-1.7,1.2-2.4c0.5-0.7,1.2-1.2,2-1.6
			c0.9-0.4,1.9-0.6,2.9-0.6c0.8,0,1.5,0.1,2.2,0.4c0.6,0.2,1.2,0.6,1.7,1c0.5,0.4,0.9,1,1.2,1.6c0.3,0.6,0.5,1.3,0.5,2h-2
			c-0.1-0.9-0.5-1.7-1.1-2.3c-0.7-0.6-1.6-1-2.6-0.9c-0.7,0-1.5,0.1-2.1,0.5c-0.5,0.3-1,0.8-1.3,1.3c-0.3,0.6-0.6,1.2-0.7,1.8
			c-0.1,0.7-0.2,1.4-0.2,2.1c0,0.7,0.1,1.4,0.2,2.1c0.1,0.7,0.4,1.3,0.7,1.9c0.3,0.5,0.8,1,1.3,1.3c0.6,0.4,1.3,0.6,2,0.7
			c1,0.1,1.9-0.3,2.7-0.9c0.6-0.7,1-1.5,1.2-2.4L108.9,129.6z"/>
		<path d="M113.7,114.4h2.4v2.5h-2.4V114.4z M113.9,120.1h2.1v14.3h-2.1L113.9,120.1z"/>
		<path d="M133.6,130.3c-0.2,1.3-0.9,2.5-1.9,3.3c-1.2,0.8-2.6,1.3-4,1.2c-1,0-1.9-0.2-2.8-0.6c-0.8-0.3-1.5-0.9-2.1-1.5
			c-0.6-0.7-1-1.5-1.3-2.4c-0.6-2-0.6-4.1,0-6.1c0.3-0.9,0.7-1.7,1.3-2.4c0.5-0.7,1.2-1.2,2-1.6c0.8-0.4,1.8-0.6,2.7-0.6
			c0.9,0,1.9,0.2,2.7,0.6c0.8,0.3,1.5,0.9,2,1.5c0.5,0.7,0.9,1.4,1.2,2.2c0.3,0.9,0.4,1.8,0.4,2.7c0,0.2,0,0.3,0,0.5s0,0.4,0,0.6
			h-10.6c0,0.7,0.1,1.4,0.3,2c0.2,0.6,0.5,1.2,0.8,1.7c0.4,0.5,0.8,0.9,1.4,1.1c0.6,0.3,1.3,0.4,1.9,0.4c0.9,0.1,1.9-0.2,2.7-0.8
			c0.6-0.5,1.1-1.2,1.2-2L133.6,130.3z M131.9,126.1c0-0.6-0.1-1.3-0.3-1.9c-0.2-0.5-0.4-1.1-0.8-1.5c-0.3-0.4-0.8-0.8-1.3-1
			c-0.6-0.3-1.2-0.4-1.8-0.4c-1.2-0.1-2.4,0.4-3.2,1.3c-0.8,1-1.2,2.2-1.2,3.4L131.9,126.1z M127.1,118.2l-0.9-0.8l3.9-3.7l1.3,1.3
			L127.1,118.2z"/>
		<path d="M144.9,134.5c-0.5,0.1-0.9,0.1-1.4,0.1c-0.6,0-1.3-0.1-1.9-0.3c-0.5-0.2-0.9-0.6-1.2-1c-0.3-0.4-0.5-0.9-0.6-1.5
			c-0.1-0.6-0.2-1.2-0.2-1.9v-8.2h-2.5V120h2.5v-3.2l2.1-1v4.2h4v1.7h-4v8.5c0,0.6,0.1,1.2,0.4,1.8c0.4,0.5,1,0.7,1.6,0.7
			c0.4,0,0.7,0,1.1-0.1c0.3,0,0.7-0.1,1-0.2l0.2,1.7L144.9,134.5"/>
		<path d="M162.1,130.3c-0.2,1.3-0.9,2.5-1.9,3.3c-1.2,0.8-2.6,1.3-4,1.2c-1,0-1.9-0.2-2.8-0.6c-0.8-0.3-1.5-0.9-2.1-1.5
			c-0.6-0.7-1-1.5-1.3-2.4c-0.6-2-0.6-4.1,0-6.1c0.3-0.9,0.7-1.7,1.3-2.4c0.5-0.7,1.2-1.2,2-1.6c0.8-0.4,1.8-0.6,2.7-0.6
			c0.9,0,1.9,0.2,2.7,0.6c0.8,0.3,1.5,0.9,2,1.5c0.5,0.7,0.9,1.4,1.2,2.2c0.3,0.9,0.4,1.8,0.4,2.7c0,0.2,0,0.3,0,0.5s0,0.4,0,0.6
			h-10.6c0,0.7,0.1,1.4,0.3,2c0.2,0.6,0.5,1.2,0.9,1.7c0.4,0.5,0.8,0.9,1.4,1.1c0.6,0.3,1.3,0.4,1.9,0.4c0.9,0.1,1.9-0.2,2.6-0.8
			c0.6-0.5,1.1-1.2,1.2-2L162.1,130.3z M160.3,126.1c0-0.6-0.1-1.3-0.3-1.9c-0.2-0.5-0.4-1.1-0.8-1.5c-0.3-0.4-0.8-0.8-1.3-1
			c-0.6-0.3-1.2-0.4-1.9-0.4c-1.2-0.1-2.4,0.4-3.1,1.3c-0.8,1-1.2,2.2-1.2,3.4L160.3,126.1z M155.6,118.2l-0.9-0.8l3.9-3.7l1.3,1.3
			L155.6,118.2z"/>
		<path d="M233.4,140.2c-5.4,3.9-13.3,6-20.1,6c-9,0.1-17.7-3.2-24.5-9.1c-0.5-0.4-0.1-1.1,0.6-0.7c7.5,4.2,16,6.3,24.6,6.3
			c6.4,0,12.8-1.3,18.7-3.7C233.6,138.6,234.3,139.6,233.4,140.2"/>
		<path d="M235.7,137.7c-0.7-0.9-4.6-0.4-6.4-0.2c-0.5,0.1-0.6-0.4-0.1-0.7c3.1-2.1,8.2-1.5,8.8-0.8s-0.2,5.7-3.1,8
			c-0.4,0.4-0.9,0.2-0.7-0.3C234.9,142.1,236.4,138.5,235.7,137.7"/>
		<path d="M229.5,121.8v-2.1c0-0.3,0.2-0.5,0.5-0.5c0,0,0,0,0,0h9.5c0.3,0,0.5,0.2,0.5,0.5c0,0,0,0,0,0v1.8c0,0.3-0.3,0.7-0.7,1.3
			l-4.9,6.8c1.9-0.1,3.7,0.3,5.4,1.1c0.3,0.2,0.5,0.5,0.5,0.8v2.2c0,0.3-0.2,0.5-0.5,0.5c-0.1,0-0.1,0-0.2,0
			c-3.2-1.6-6.9-1.6-10.1,0c-0.3,0.2-0.7-0.2-0.7-0.5v-2.1c0-0.5,0.1-1,0.4-1.4l5.7-8h-5C229.7,122.3,229.5,122,229.5,121.8
			C229.4,121.8,229.4,121.7,229.5,121.8"/>
		<path d="M194.8,134.7h-2.9c-0.3,0-0.5-0.2-0.5-0.5v-14.4c0-0.3,0.3-0.5,0.6-0.5h2.7c0.3,0,0.5,0.2,0.5,0.5v1.9h0.1
			c0.7-2.1,3-3.2,5.1-2.5c1.2,0.4,2.1,1.3,2.5,2.5c0.6-1.7,2.2-2.7,4-2.7c1.3,0,2.5,0.5,3.4,1.6c0.9,1.2,0.7,3,0.7,4.5v9.1
			c0,0.3-0.3,0.5-0.6,0.5c0,0,0,0,0,0h-2.9c-0.3,0-0.5-0.2-0.5-0.5v-7.7c0-0.9,0-1.8-0.1-2.7c-0.1-0.8-0.9-1.4-1.7-1.2
			c-0.8,0-1.4,0.5-1.7,1.2c-0.2,0.9-0.3,1.8-0.3,2.8v7.6c0,0.3-0.3,0.5-0.6,0.5c0,0,0,0,0,0h-2.9c-0.3,0-0.5-0.2-0.5-0.5v-7.7
			c0-1.6,0.3-4-1.8-4s-2,2.3-2,4v7.7C195.3,134.4,195.1,134.7,194.8,134.7"/>
		<path d="M248.2,118.9c4.3,0,6.6,3.6,6.6,8.1c0,4.4-2.6,7.9-6.6,7.9c-4.2,0-6.5-3.6-6.5-8.1S244.1,118.9,248.2,118.9 M248.2,121.9
			c-2.1,0-2.3,2.8-2.3,4.6c0,1.8,0,5.5,2.2,5.5s2.4-3,2.4-4.9c0-1.3-0.1-2.6-0.4-3.8C250,122.4,249.2,121.8,248.2,121.9"/>
		<path d="M260.4,134.7h-2.9c-0.3,0-0.5-0.2-0.5-0.5v-14.4c0-0.3,0.3-0.5,0.6-0.5h2.7c0.2,0,0.5,0.2,0.5,0.4v2.2h0
			c0.8-2,2-2.9,4-2.9c1.3-0.1,2.6,0.6,3.4,1.7c0.8,1.2,0.8,3.1,0.8,4.5v9.1c0,0.3-0.3,0.5-0.5,0.4h-2.9c-0.3,0-0.5-0.2-0.5-0.4v-7.8
			c0-1.6,0.2-3.9-1.8-3.9c-0.7,0-1.4,0.5-1.7,1.2c-0.4,0.9-0.5,1.8-0.5,2.7v7.8C261,134.4,260.8,134.7,260.4,134.7"/>
		<path d="M227,132c-0.7-0.7-1.1-1.6-1.1-2.6V125c0-1.8,0.1-3.6-1.3-4.8c-1.2-1-2.8-1.5-4.4-1.4c-2.8,0-5.8,1-6.5,4.3c0,0,0,0,0,0
			c0,0.3,0.2,0.5,0.4,0.5l2.8,0.3c0.3,0,0.5-0.3,0.5-0.5c0.2-1.1,1.2-1.8,2.3-1.7c0.6,0,1.2,0.2,1.6,0.7c0.3,0.6,0.4,1.3,0.3,2v0.4
			c-1.8,0.1-3.7,0.4-5.4,1c-1.9,0.7-3.1,2.6-3.1,4.6c0,0.2,0,0.5,0,0.7c0.2,2.2,2.1,3.8,4.3,3.6c1.8,0.1,3.6-0.6,4.8-2
			c0.4,0.7,1,1.4,1.7,1.9c0.2,0.1,0.5,0.1,0.7-0.1h0c0.6-0.5,1.6-1.4,2.2-1.9C227.2,132.6,227.2,132.3,227,132z M221.3,130.8
			c-0.4,0.8-1.2,1.2-2,1.3c-1.1,0-1.8-0.8-1.8-2c0-2.4,2.2-2.8,4.3-2.8l0,0.6C222,128.8,221.8,129.8,221.3,130.8z"/>
		<path d="M189.2,132c-0.7-0.7-1.1-1.6-1.1-2.6V125c0-1.8,0.1-3.6-1.3-4.8c-1.2-1-2.8-1.5-4.4-1.4c-2.8,0-5.8,1-6.5,4.3c0,0,0,0,0,0
			c0,0.3,0.2,0.5,0.4,0.5l2.8,0.3c0.3,0,0.5-0.3,0.5-0.5c0.3-1.1,1.2-1.8,2.3-1.7c0.6,0,1.2,0.2,1.6,0.7c0.3,0.6,0.4,1.3,0.4,2v0.4
			c-1.8,0.1-3.7,0.4-5.4,1c-1.9,0.7-3.1,2.6-3.1,4.6c0,0.2,0,0.5,0,0.7c0.2,2.2,2.1,3.8,4.3,3.6c1.8,0.1,3.6-0.6,4.8-2
			c0.4,0.7,1,1.4,1.7,1.9c0.2,0.1,0.5,0.1,0.7-0.1l0,0c0.6-0.5,1.6-1.4,2.2-1.9C189.4,132.5,189.4,132.2,189.2,132z M183.5,130.8
			c-0.4,0.8-1.2,1.2-2,1.3c-1.1,0-1.8-0.8-1.8-2c0-2.4,2.2-2.8,4.3-2.8v0.6C184.1,128.8,183.9,129.8,183.5,130.8z"/>
	</g>
</g>
<polygon class="st1" points="304.8,56.5 357.7,23.4 357.7,32.3 304.8,65.4 251.9,32.3 251.9,23.4 "/>
<path class="st1" d="M304.8,15.1c-11.5,0-22.2,5.7-28.5,15.3l0,0c0.4-0.4,0.8-0.8,1.3-1.1c14.9-12.3,36.3-9.6,48,6l7.8-4.9l0,0
	C326.9,20.9,316.2,15.1,304.8,15.1"/>
<path class="st1" d="M304.8,30.3c-6.2,0-12,3-15.6,8.1c2.8-2,6.1-3.1,9.5-3.1c5.7,0,10.8,3,14.3,7.9l7.5-4.7l0,0
	C316.9,33.4,311,30.3,304.8,30.3"/>
<path class="st1" d="M269,17c21.8-17.2,52.6-12.6,69,10.3l0.1,0.2l8.1-5l0,0C331.2-0.4,300.6-6.9,277.7,8.1
	c-5.7,3.7-10.6,8.6-14.4,14.4C265.1,20.5,267,18.7,269,17"/>
</svg>
