<?xml version="1.0" encoding="UTF-8" standalone="no"?>
<svg width="39px" height="26px" viewBox="0 0 39 26" version="1.1" xmlns="http://www.w3.org/2000/svg" xmlns:xlink="http://www.w3.org/1999/xlink" style="background: #FFFFFF;">
    <!-- Generator: Sketch 41.2 (35397) - http://www.bohemiancoding.com/sketch -->
    <title>mastercard</title>
    <desc>Created with Sketch.</desc>
    <defs></defs>
    <g id="Page-1" stroke="none" stroke-width="1" fill="none" fill-rule="evenodd">
        <g id="mastercard">
            <g>
                <polygon id="Stroke-9" stroke="#808184" points="0.509269949 25.5246699 38.5092699 25.5246699 38.5092699 0.524669922 0.525016147 0.524669922"></polygon>
                <path d="M22.0248,13.1087 C22.0248,17.9837 18.0728,21.9347 13.1988,21.9347 C8.3238,21.9347 4.3718,17.9837 4.3718,13.1087 C4.3718,8.2337 8.3238,4.2817 13.1988,4.2817 C18.0728,4.2817 22.0248,8.2337 22.0248,13.1087" id="Fill-3" fill="#ED1B2D"></path>
                <path d="M25.0484,4.282 C22.7674,4.282 20.6894,5.147 19.1224,6.567 C18.8044,6.856 18.5064,7.169 18.2324,7.501 L20.0154,7.501 C20.2584,7.798 20.4834,8.109 20.6884,8.436 L17.5594,8.436 C17.3714,8.736 17.2014,9.048 17.0504,9.371 L21.1964,9.371 C21.3384,9.673 21.4634,9.985 21.5704,10.305 L16.6764,10.305 C16.5744,10.609 16.4884,10.921 16.4204,11.24 L21.8264,11.24 C21.9564,11.842 22.0244,12.467 22.0244,13.109 C22.0244,14.089 21.8654,15.032 21.5704,15.913 L16.6764,15.913 C16.7834,16.233 16.9084,16.544 17.0504,16.847 L21.1964,16.847 C21.0454,17.17 20.8754,17.482 20.6874,17.782 L17.5594,17.782 C17.7634,18.108 17.9884,18.42 18.2324,18.716 L20.0144,18.716 C19.7404,19.049 19.4434,19.362 19.1234,19.651 C20.6894,21.07 22.7674,21.935 25.0484,21.935 C29.9234,21.935 33.8754,17.983 33.8754,13.109 C33.8754,8.234 29.9234,4.282 25.0484,4.282" id="Fill-5" fill="#FBB130"></path>
                <path d="M11.8342,15.6974 L11.0402,15.6974 L11.0582,15.3204 C10.8162,15.6184 10.4932,15.7604 10.0542,15.7604 C9.5352,15.7604 9.1782,15.3544 9.1782,14.7654 C9.1782,13.8794 9.7982,13.3624 10.8612,13.3624 C10.9702,13.3624 11.1092,13.3724 11.2512,13.3904 C11.2812,13.2704 11.2892,13.2184 11.2892,13.1544 C11.2892,12.9134 11.1222,12.8224 10.6742,12.8224 C10.2052,12.8174 9.8192,12.9344 9.6602,12.9864 C9.6702,12.9264 9.7932,12.1684 9.7932,12.1684 C10.2702,12.0274 10.5852,11.9754 10.9402,11.9754 C11.7632,11.9754 12.1992,12.3444 12.1982,13.0424 C12.1992,13.2304 12.1682,13.4604 12.1202,13.7644 C12.0372,14.2914 11.8582,15.4224 11.8342,15.6974 M11.1372,14.0754 C11.0362,14.0634 10.9922,14.0604 10.9232,14.0604 C10.3802,14.0604 10.1052,14.2464 10.1052,14.6144 C10.1052,14.8414 10.2392,14.9854 10.4492,14.9854 C10.8392,14.9854 11.1202,14.6134 11.1372,14.0754" id="Fill-7" fill="#003473"></path>
                <polygon id="Fill-9" fill="#003473" points="8.7777 15.6974 7.8197 15.6974 8.3687 12.2564 7.1427 15.6974 6.4897 15.6974 6.4087 12.2754 5.8317 15.6974 4.9347 15.6974 5.6847 11.2204 7.0627 11.2204 7.1457 13.7264 7.9857 11.2204 9.5187 11.2204"></polygon>
                <path d="M26.9299,15.6974 L26.1359,15.6974 L26.1539,15.3204 C25.9119,15.6184 25.5889,15.7604 25.1499,15.7604 C24.6299,15.7604 24.2749,15.3544 24.2749,14.7654 C24.2749,13.8794 24.8939,13.3624 25.9569,13.3624 C26.0659,13.3624 26.2049,13.3724 26.3469,13.3904 C26.3769,13.2704 26.3849,13.2184 26.3849,13.1544 C26.3849,12.9134 26.2179,12.8224 25.7699,12.8224 C25.3009,12.8174 24.9149,12.9344 24.7559,12.9864 C24.7659,12.9264 24.8889,12.1684 24.8889,12.1684 C25.3659,12.0274 25.6819,11.9754 26.0349,11.9754 C26.8589,11.9754 27.2939,12.3444 27.2929,13.0424 C27.2949,13.2304 27.2639,13.4604 27.2159,13.7644 C27.1329,14.2914 26.9539,15.4224 26.9299,15.6974 M26.2329,14.0754 C26.1319,14.0634 26.0879,14.0604 26.0189,14.0604 C25.4759,14.0604 25.2009,14.2464 25.2009,14.6144 C25.2009,14.8414 25.3349,14.9854 25.5449,14.9854 C25.9349,14.9854 26.2159,14.6134 26.2329,14.0754" id="Fill-11" fill="#003473"></path>
                <path d="M16.0928,15.6421 C15.8308,15.7241 15.6258,15.7601 15.4048,15.7601 C14.9148,15.7601 14.6468,15.4791 14.6468,14.9601 C14.6408,14.7991 14.7178,14.3761 14.7788,13.9901 C14.8338,13.6501 15.1938,11.5051 15.1938,11.5051 L16.1468,11.5051 L16.0358,12.0561 L16.6108,12.0561 L16.4808,12.9311 L15.9038,12.9311 C15.7928,13.6241 15.6348,14.4861 15.6328,14.6011 C15.6328,14.7881 15.7338,14.8701 15.9618,14.8701 C16.0708,14.8701 16.1548,14.8591 16.2198,14.8361 L16.0928,15.6421 Z" id="Fill-13" fill="#003473"></path>
                <path d="M18.4777,13.454 C18.4837,13.378 18.5787,12.804 18.0347,12.804 C17.7307,12.804 17.5137,13.035 17.4257,13.454 L18.4777,13.454 Z M19.0127,15.612 C18.6857,15.713 18.3707,15.761 18.0357,15.76 C16.9697,15.759 16.4137,15.202 16.4137,14.136 C16.4137,12.891 17.1207,11.975 18.0807,11.975 C18.8657,11.975 19.3677,12.488 19.3677,13.292 C19.3677,13.56 19.3337,13.82 19.2497,14.188 L17.3537,14.188 C17.2897,14.716 17.6267,14.936 18.1817,14.936 C18.5217,14.936 18.8297,14.866 19.1717,14.707 L19.0127,15.612 Z" id="Fill-15" fill="#003473"></path>
                <path d="M12.4089,13.2075 C12.4089,13.6675 12.6319,13.9855 13.1389,14.2235 C13.5269,14.4065 13.5869,14.4605 13.5869,14.6255 C13.5869,14.8525 13.4159,14.9555 13.0369,14.9555 C12.7509,14.9555 12.4849,14.9105 12.1779,14.8115 C12.1779,14.8115 12.0519,15.6145 12.0459,15.6525 C12.2639,15.6995 12.4579,15.7435 13.0429,15.7605 C14.0539,15.7605 14.5209,15.3755 14.5209,14.5435 C14.5209,14.0435 14.3259,13.7495 13.8459,13.5285 C13.4439,13.3445 13.3979,13.3025 13.3979,13.1335 C13.3979,12.9365 13.5569,12.8355 13.8669,12.8355 C14.0549,12.8355 14.3119,12.8555 14.5559,12.8905 L14.6919,12.0455 C14.4439,12.0065 14.0679,11.9755 13.8489,11.9755 C12.7769,11.9755 12.4059,12.5345 12.4089,13.2075" id="Fill-17" fill="#003473"></path>
                <path d="M23.6734,12.0711 C23.9394,12.0711 24.1884,12.1401 24.5294,12.3131 L24.6864,11.3411 C24.5454,11.2861 24.0524,10.9621 23.6334,10.9621 C22.9924,10.9621 22.4494,11.2801 22.0684,11.8051 C21.5124,11.6211 21.2834,11.9931 21.0034,12.3641 L20.7544,12.4221 C20.7734,12.3001 20.7904,12.1791 20.7854,12.0561 L19.9044,12.0561 C19.7844,13.1831 19.5714,14.3251 19.4044,15.4521 L19.3614,15.6971 L20.3204,15.6971 C20.4804,14.6581 20.5674,13.9921 20.6214,13.5411 L20.9824,13.3411 C21.0364,13.1401 21.2044,13.0731 21.5434,13.0811 C21.4994,13.3181 21.4744,13.5681 21.4744,13.8271 C21.4744,15.0191 22.1184,15.7601 23.1494,15.7601 C23.4154,15.7601 23.6434,15.7251 23.9964,15.6291 L24.1644,14.6091 C23.8474,14.7651 23.5874,14.8391 23.3504,14.8391 C22.7934,14.8391 22.4574,14.4271 22.4574,13.7481 C22.4574,12.7621 22.9584,12.0711 23.6734,12.0711" id="Fill-19" fill="#003473"></path>
                <path d="M30.5878,14.8562 C30.2618,14.8562 30.0968,14.6142 30.0968,14.1382 C30.0968,13.4232 30.4058,12.9152 30.8398,12.9152 C31.1688,12.9152 31.3478,13.1662 31.3478,13.6282 C31.3478,14.3502 31.0338,14.8562 30.5878,14.8562 L30.5878,14.8562 Z M31.7858,11.2202 L31.5738,12.5132 C31.3118,12.1692 31.0308,11.9192 30.6588,11.9192 C30.1748,11.9192 29.7348,12.2862 29.4468,12.8262 C29.0458,12.7422 28.6308,12.6012 28.6308,12.6012 L28.6308,12.6042 C28.6628,12.3032 28.6758,12.1192 28.6728,12.0562 L27.7928,12.0562 C27.6728,13.1832 27.4598,14.3252 27.2928,15.4522 L27.2488,15.6972 L28.2078,15.6972 C28.3378,14.8572 28.4368,14.1592 28.5098,13.6052 C28.8368,13.3092 29.0008,13.0512 29.3318,13.0682 C29.1848,13.4232 29.0998,13.8312 29.0998,14.2492 C29.0998,15.1592 29.5598,15.7602 30.2568,15.7602 C30.6078,15.7602 30.8768,15.6392 31.1398,15.3582 L31.0948,15.6972 L32.0018,15.6972 L32.7308,11.2202 L31.7858,11.2202 Z" id="Fill-21" fill="#003473"></path>
                <polygon id="Fill-23" fill="#FEFEFE" points="9.0534 15.4316 8.0954 15.4316 8.6444 11.9906 7.4184 15.4316 6.7654 15.4316 6.6844 12.0106 6.1074 15.4316 5.2104 15.4316 5.9604 10.9546 7.3384 10.9546 7.3764 13.7266 8.3064 10.9546 9.7944 10.9546"></polygon>
                <path d="M12.11,15.4316 L11.316,15.4316 L11.334,15.0546 C11.092,15.3526 10.769,15.4946 10.33,15.4946 C9.811,15.4946 9.455,15.0886 9.455,14.4996 C9.455,13.6136 10.074,13.0966 11.137,13.0966 C11.246,13.0966 11.385,13.1066 11.528,13.1246 C11.557,13.0046 11.565,12.9536 11.565,12.8886 C11.565,12.6476 11.398,12.5576 10.951,12.5576 C10.481,12.5516 10.095,12.6686 9.936,12.7206 C9.946,12.6606 10.069,11.9026 10.069,11.9026 C10.546,11.7626 10.861,11.7096 11.216,11.7096 C12.039,11.7096 12.475,12.0786 12.474,12.7766 C12.475,12.9646 12.444,13.1956 12.396,13.4986 C12.313,14.0256 12.134,15.1566 12.11,15.4316 M11.413,13.8096 C11.313,13.7986 11.268,13.7946 11.199,13.7946 C10.656,13.7946 10.381,13.9806 10.381,14.3486 C10.381,14.5756 10.515,14.7196 10.725,14.7196 C11.115,14.7196 11.397,14.3486 11.413,13.8096" id="Fill-25" fill="#FEFEFE"></path>
                <path d="M24.9624,11.0755 L24.8054,12.0475 C24.4634,11.8755 24.2154,11.8055 23.9494,11.8055 C23.2344,11.8055 22.7324,12.4965 22.7324,13.4825 C22.7324,14.1625 23.0694,14.5725 23.6264,14.5725 C23.8624,14.5725 24.1234,14.5005 24.4404,14.3435 L24.2724,15.3635 C23.9194,15.4595 23.6914,15.4945 23.4254,15.4945 C22.3934,15.4945 21.7514,14.7525 21.7514,13.5625 C21.7514,11.9615 22.6394,10.8425 23.9094,10.8425 C24.3274,10.8425 24.8224,11.0205 24.9624,11.0755" id="Fill-27" fill="#FEFEFE"></path>
                <path d="M27.2057,15.4316 L26.4117,15.4316 L26.4297,15.0546 C26.1877,15.3526 25.8647,15.4946 25.4257,15.4946 C24.9057,15.4946 24.5507,15.0886 24.5507,14.4996 C24.5507,13.6136 25.1697,13.0966 26.2327,13.0966 C26.3417,13.0966 26.4807,13.1066 26.6227,13.1246 C26.6527,13.0046 26.6607,12.9536 26.6607,12.8886 C26.6607,12.6476 26.4937,12.5576 26.0457,12.5576 C25.5777,12.5516 25.1907,12.6686 25.0317,12.7206 C25.0417,12.6606 25.1647,11.9026 25.1647,11.9026 C25.6427,11.7626 25.9567,11.7096 26.3117,11.7096 C27.1337,11.7096 27.5707,12.0786 27.5687,12.7766 C27.5707,12.9646 27.5397,13.1956 27.4917,13.4986 C27.4087,14.0256 27.2297,15.1566 27.2057,15.4316 M26.5087,13.8096 C26.4077,13.7986 26.3637,13.7946 26.2947,13.7946 C25.7517,13.7946 25.4767,13.9806 25.4767,14.3486 C25.4767,14.5756 25.6107,14.7196 25.8207,14.7196 C26.2107,14.7196 26.4927,14.3486 26.5087,13.8096" id="Fill-29" fill="#FEFEFE"></path>
                <path d="M16.3685,15.3764 C16.1065,15.4584 15.9015,15.4944 15.6805,15.4944 C15.1905,15.4944 14.9225,15.2134 14.9225,14.6954 C14.9165,14.5334 14.9935,14.1114 15.0545,13.7244 C15.1095,13.3844 15.4695,11.2394 15.4695,11.2394 L16.4225,11.2394 L16.3115,11.7914 L16.7995,11.7914 L16.6695,12.6654 L16.1795,12.6654 C16.0685,13.3584 15.9105,14.2204 15.9085,14.3354 C15.9085,14.5234 16.0095,14.6044 16.2375,14.6044 C16.3465,14.6044 16.4305,14.5944 16.4955,14.5704 L16.3685,15.3764 Z" id="Fill-31" fill="#FEFEFE"></path>
                <path d="M18.7539,13.1883 C18.7589,13.1123 18.8549,12.5383 18.3109,12.5383 C18.0069,12.5383 17.7899,12.7703 17.7019,13.1883 L18.7539,13.1883 Z M19.2889,15.3473 C18.9619,15.4473 18.6459,15.4953 18.3119,15.4953 C17.2449,15.4943 16.6899,14.9373 16.6899,13.8703 C16.6899,12.6253 17.3969,11.7093 18.3559,11.7093 C19.1419,11.7093 19.6439,12.2223 19.6439,13.0273 C19.6439,13.2943 19.6089,13.5553 19.5259,13.9223 L17.6299,13.9223 C17.5649,14.4503 17.9029,14.6713 18.4569,14.6713 C18.7979,14.6713 19.1059,14.6013 19.4479,14.4413 L19.2889,15.3473 Z" id="Fill-33" fill="#FEFEFE"></path>
                <path d="M12.6846,12.9418 C12.6846,13.4028 12.9076,13.7198 13.4146,13.9588 C13.8026,14.1408 13.8626,14.1948 13.8626,14.3608 C13.8626,14.5868 13.6916,14.6898 13.3126,14.6898 C13.0266,14.6898 12.7606,14.6458 12.4536,14.5468 C12.4536,14.5468 12.3276,15.3488 12.3216,15.3868 C12.5396,15.4348 12.7336,15.4778 13.3186,15.4948 C14.3306,15.4948 14.7976,15.1098 14.7976,14.2778 C14.7976,13.7778 14.6016,13.4838 14.1216,13.2638 C13.7196,13.0788 13.6736,13.0378 13.6736,12.8678 C13.6736,12.6708 13.8326,12.5698 14.1426,12.5698 C14.3306,12.5698 14.5876,12.5908 14.8316,12.6248 L14.9676,11.7808 C14.7196,11.7418 14.3436,11.7098 14.1246,11.7098 C13.0526,11.7098 12.6816,12.2688 12.6846,12.9418" id="Fill-35" fill="#FEFEFE"></path>
                <path d="M30.8635,14.5905 C31.3105,14.5905 31.6235,14.0845 31.6235,13.3635 C31.6235,12.9015 31.4445,12.6495 31.1155,12.6495 C30.6815,12.6495 30.3725,13.1575 30.3725,13.8735 C30.3725,14.3495 30.5375,14.5905 30.8635,14.5905 L30.8635,14.5905 Z M32.2775,15.4315 L31.3705,15.4315 L31.4155,15.0925 C31.1525,15.3735 30.8835,15.4945 30.5325,15.4945 C29.8355,15.4945 29.3755,14.8945 29.3755,13.9835 C29.3755,12.7725 30.0895,11.7525 30.9345,11.7525 C31.3065,11.7525 31.5875,11.9035 31.8495,12.2485 L32.0615,10.9545 L33.0065,10.9545 L32.2775,15.4315 Z" id="Fill-37" fill="#FEFEFE"></path>
                <path d="M28.0688,11.791 C27.9488,12.918 27.7358,14.059 27.5688,15.187 L27.5258,15.432 L28.4838,15.432 C28.8268,13.205 28.9088,12.771 29.4468,12.825 C29.5328,12.369 29.6918,11.97 29.8108,11.769 C29.4098,11.685 29.1848,11.912 28.8918,12.343 C28.9148,12.157 28.9568,11.976 28.9488,11.791 L28.0688,11.791 Z" id="Fill-39" fill="#FEFEFE"></path>
                <path d="M20.1808,11.791 C20.0608,12.918 19.8468,14.059 19.6808,15.187 L19.6368,15.432 L20.5958,15.432 C20.9388,13.205 21.0208,12.771 21.5578,12.825 C21.6438,12.369 21.8038,11.97 21.9228,11.769 C21.5218,11.685 21.2968,11.912 21.0038,12.343 C21.0268,12.157 21.0688,11.976 21.0608,11.791 L20.1808,11.791 Z" id="Fill-41" fill="#FEFEFE"></path>
            </g>
        </g>
    </g>
</svg>